<?xml version="1.0" standalone="no"?>
<!DOCTYPE svg PUBLIC "-//W3C//DTD SVG 20010904//EN"
 "http://www.w3.org/TR/2001/REC-SVG-20010904/DTD/svg10.dtd">
<svg version="1.0" xmlns="http://www.w3.org/2000/svg"
 width="200.000000pt" height="200.000000pt" viewBox="0 0 200.000000 200.000000"
 preserveAspectRatio="xMidYMid meet">
<metadata>
Created by potrace 1.14, written by Peter Selinger 2001-2017
</metadata>
<g transform="translate(0.000000,200.000000) scale(0.100000,-0.100000)"
fill="#000000" stroke="none">
<path d="M267 1885 c-14 -14 -20 -41 -32 -160 -2 -27 -9 -88 -14 -135 -23
-202 -23 -206 -6 -224 13 -12 37 -16 109 -16 102 0 126 12 126 62 0 34 24 89
55 126 43 52 111 68 263 63 l32 -1 0 -585 c0 -415 -3 -591 -11 -609 -17 -37
-67 -56 -148 -56 -59 0 -72 -3 -81 -19 -13 -25 -13 -191 0 -211 14 -23 833
-27 867 -4 21 13 23 22 23 109 0 118 -6 125 -100 125 -38 0 -81 5 -95 12 -56
25 -55 17 -55 653 l0 585 88 0 c48 0 103 -5 123 -10 68 -19 139 -111 139 -181
0 -49 21 -59 125 -59 119 0 128 7 120 93 -5 60 -10 98 -20 175 -3 20 -7 64
-10 97 -3 33 -7 69 -9 80 -3 11 -5 32 -5 47 -2 61 37 58 -751 58 -620 0 -721
-2 -733 -15z m1387 -93 c2 -4 7 -41 10 -82 4 -41 8 -88 10 -105 20 -161 20
-157 -4 -153 -17 2 -27 17 -43 58 -26 71 -98 141 -172 169 -73 28 -313 31
-339 5 -14 -14 -16 -85 -16 -637 0 -412 4 -635 11 -661 21 -75 112 -136 203
-136 32 0 36 -3 36 -25 l0 -25 -350 0 -350 0 0 24 c0 21 5 24 59 29 69 6 130
41 164 96 l22 36 3 642 c2 590 1 642 -14 658 -15 15 -37 16 -163 13 -136 -3
-150 -5 -203 -31 -68 -33 -121 -91 -147 -161 -14 -38 -24 -52 -41 -54 -22 -4
-22 -2 -16 70 8 84 17 166 22 188 1 8 3 32 3 53 l1 37 654 0 c360 0 657 -3
660 -8z"/>
</g>
</svg>
